<?xml version="1.0" standalone="no"?>
<!DOCTYPE svg PUBLIC "-//W3C//DTD SVG 20010904//EN"
 "http://www.w3.org/TR/2001/REC-SVG-20010904/DTD/svg10.dtd">
<svg version="1.0" xmlns="http://www.w3.org/2000/svg"
 width="707.000000pt" height="200.000000pt" viewBox="0 0 707.000000 200.000000"
 preserveAspectRatio="xMidYMid meet">

<g transform="translate(0.000000,200.000000) scale(0.100000,-0.100000)"
fill="#000000" stroke="none">
<path d="M1048 1840 c-74 -9 -235 -53 -282 -77 -43 -21 -149 -94 -158 -107
-16 -23 -7 -26 21 -7 46 33 201 107 281 134 117 40 190 51 308 45 59 -3 96 -3
82 2 -44 13 -182 18 -252 10z"/>
<path d="M4180 1745 l0 -75 90 0 90 0 0 75 0 75 -90 0 -90 0 0 -75z"/>
<path d="M1410 1796 c19 -8 42 -15 50 -15 26 -1 -10 16 -50 23 l-35 6 35 -14z"/>
<path d="M3150 1410 l0 -380 90 0 90 0 0 278 1 277 87 -203 87 -203 63 3 64 3
83 195 84 195 1 -272 0 -273 95 0 95 0 0 380 0 381 -126 -3 -126 -3 -82 -192
c-45 -106 -84 -195 -87 -198 -3 -2 -43 85 -90 195 l-84 200 -122 0 -123 0 0
-380z"/>
<path d="M4550 1410 l0 -380 265 0 265 0 0 75 0 75 -170 0 -170 0 0 305 0 305
-95 0 -95 0 0 -380z"/>
<path d="M5360 1607 c-133 -38 -201 -133 -202 -284 0 -134 47 -220 150 -270
51 -25 68 -28 157 -28 84 0 108 4 152 24 58 26 116 84 141 140 22 50 22 212 0
262 -25 57 -83 114 -141 139 -63 28 -189 36 -257 17z m186 -148 c59 -55 59
-222 0 -278 -32 -30 -94 -38 -133 -18 -87 46 -90 264 -4 313 37 20 106 12 137
-17z"/>
<path d="M6032 1607 c-51 -19 -95 -59 -127 -118 -28 -51 -30 -61 -30 -164 0
-103 2 -113 30 -164 34 -62 81 -104 134 -120 83 -24 159 -6 219 51 l32 32 0
-50 c0 -67 -26 -107 -84 -129 -58 -22 -152 -16 -219 13 l-47 21 0 -69 0 -69
38 -11 c64 -18 196 -24 264 -10 76 15 123 38 165 82 65 67 68 82 71 406 l3
292 -95 0 -96 0 0 -37 0 -37 -32 32 c-61 58 -148 77 -226 49z m197 -132 c41
-20 61 -71 61 -150 0 -79 -20 -130 -61 -150 -59 -31 -123 -12 -151 45 -23 46
-24 159 -2 206 28 59 94 80 153 49z"/>
<path d="M4180 1315 l0 -285 90 0 90 0 0 285 0 285 -90 0 -90 0 0 -285z"/>
<path d="M1234 1486 c-3 -8 -4 -25 -2 -38 3 -22 6 -23 108 -23 l105 0 0 35 0
35 -103 3 c-82 2 -103 0 -108 -12z"/>
<path d="M1124 1447 c-39 -27 -50 -40 -52 -65 -4 -41 17 -42 65 -6 43 33 65
67 57 88 -9 22 -15 21 -70 -17z"/>
<path d="M1775 1390 c-27 -11 -95 -36 -150 -56 -55 -20 -156 -61 -225 -91
-134 -60 -859 -418 -874 -434 -20 -19 6 -22 75 -9 97 19 185 5 376 -59 82 -27
195 -59 251 -71 181 -36 417 -23 474 27 9 8 21 44 28 81 17 99 97 457 120 537
11 38 20 76 20 82 0 18 -36 15 -95 -7z m0 -120 c8 -26 -12 -62 -33 -58 -21 4
-28 44 -12 64 17 20 38 18 45 -6z m-142 -68 c9 -10 23 -35 32 -56 13 -32 14
-44 4 -68 -22 -53 -70 -64 -91 -21 -18 39 -40 39 -58 0 -12 -27 -21 -33 -52
-35 -25 -2 -41 -10 -48 -23 -6 -10 -28 -28 -50 -39 -39 -20 -40 -20 -59 -1
-25 25 -63 111 -57 128 9 23 36 14 56 -19 32 -55 37 -59 65 -46 20 9 25 19 25
48 0 51 27 74 78 68 35 -5 39 -3 49 23 7 17 24 34 44 43 44 19 43 19 62 -2z
m-381 -200 c26 -47 34 -72 28 -82 -18 -28 -46 3 -90 102 -13 27 -7 48 13 48 7
0 29 -30 49 -68z m-58 -24 c31 -63 34 -98 7 -98 -10 0 -25 10 -34 23 -14 21
-15 22 -35 4 -11 -11 -26 -16 -32 -12 -7 4 -10 -8 -8 -37 2 -32 -1 -43 -12
-43 -15 0 -80 107 -80 131 0 21 29 29 62 16 29 -11 30 -10 46 28 23 60 53 55
86 -12z m357 29 c-1 -12 -15 -9 -19 4 -3 6 1 10 8 8 6 -3 11 -8 11 -12z m-111
-61 c0 -3 -4 -8 -10 -11 -5 -3 -10 -1 -10 4 0 6 5 11 10 11 6 0 10 -2 10 -4z
m-75 -26 c3 -5 1 -10 -4 -10 -6 0 -11 5 -11 10 0 6 2 10 4 10 3 0 8 -4 11 -10z
m-95 -58 c0 -13 -12 -22 -22 -16 -10 6 -1 24 13 24 5 0 9 -4 9 -8z"/>
<path d="M1915 1398 c-12 -33 -45 -174 -45 -192 0 -12 19 13 45 61 47 86 53
111 33 131 -15 15 -27 15 -33 0z"/>
<path d="M1237 1384 c-18 -19 19 -24 168 -24 161 0 195 4 195 21 0 10 -353 13
-363 3z"/>
<path d="M1094 1325 c-38 -25 -70 -53 -72 -63 -1 -9 -5 -37 -8 -62 -4 -32 -13
-51 -31 -67 -17 -13 -24 -27 -20 -37 6 -14 18 -11 89 25 136 68 139 71 136
138 -3 53 -4 56 -27 53 l-25 -2 22 23 c23 25 28 37 13 37 -4 0 -39 -20 -77
-45z m-4 -39 c0 -3 -4 -8 -10 -11 -5 -3 -10 -1 -10 4 0 6 5 11 10 11 6 0 10
-2 10 -4z"/>
<path d="M948 1287 c-6 -8 -21 -12 -32 -10 -32 5 -180 -88 -184 -115 -2 -12 3
-24 10 -27 16 -6 164 75 182 101 9 12 15 14 20 6 13 -21 45 -13 52 12 10 42
-20 62 -48 33z"/>
<path d="M780 1119 c-69 -38 -131 -77 -137 -86 -16 -20 -17 -99 -3 -108 9 -6
246 111 278 137 6 6 12 29 12 52 0 23 -6 50 -12 59 -12 14 -26 9 -138 -54z"/>
<path d="M3200 610 l0 -220 55 0 55 0 0 220 0 220 -55 0 -55 0 0 -220z"/>
<path d="M3850 765 c0 -41 -2 -45 -25 -45 -22 0 -25 -4 -25 -40 0 -35 3 -40
24 -40 23 0 24 -2 28 -100 5 -130 14 -141 122 -148 l76 -5 0 42 c0 41 0 41
-38 41 -54 0 -62 13 -62 97 l0 73 55 0 55 0 0 40 0 40 -55 0 -55 0 0 45 0 45
-50 0 -50 0 0 -45z"/>
<path d="M3556 705 c-44 -30 -46 -30 -46 -5 0 17 -7 20 -50 20 l-50 0 0 -165
0 -165 50 0 50 0 1 88 c0 108 14 153 52 166 59 21 75 -11 76 -156 l1 -98 50 0
50 0 0 113 c0 140 -11 182 -53 207 -43 27 -87 25 -131 -5z"/>
<path d="M4200 708 c-64 -33 -84 -66 -88 -146 -3 -57 0 -72 20 -101 37 -56 82
-76 163 -76 39 0 87 6 108 14 33 11 37 16 37 47 0 39 -1 39 -55 19 -42 -15
-103 -19 -130 -9 -14 6 -45 53 -45 69 0 3 57 5 126 5 l126 0 -7 48 c-3 26 -14
61 -24 77 -21 38 -93 75 -146 75 -23 0 -60 -10 -85 -22z m134 -70 c29 -41 21
-48 -53 -48 -65 0 -69 1 -64 20 13 49 90 67 117 28z"/>
<path d="M4705 720 c-12 -4 -27 -15 -34 -24 -18 -22 -31 -20 -31 4 0 17 -7 20
-50 20 l-50 0 0 -165 0 -165 49 0 49 0 4 106 c3 102 5 107 32 131 23 19 38 24
68 21 l38 -4 0 43 c0 40 -2 43 -27 42 -16 0 -37 -4 -48 -9z"/>
<path d="M4986 705 c-44 -30 -46 -30 -46 -5 0 17 -7 20 -50 20 l-50 0 0 -165
0 -165 50 0 50 0 1 88 c0 108 14 153 52 166 59 21 75 -11 76 -156 l1 -98 50 0
50 0 0 113 c0 140 -11 182 -53 207 -43 27 -87 25 -131 -5z"/>
<path d="M5754 719 c-46 -13 -69 -44 -69 -94 0 -68 32 -92 148 -110 42 -7 56
-27 36 -51 -11 -13 -26 -15 -74 -11 -33 3 -70 9 -82 13 -21 6 -23 3 -23 -30 0
-30 4 -37 28 -43 51 -14 175 -9 208 9 61 33 69 119 14 160 -14 10 -53 23 -87
29 -70 12 -93 30 -72 55 10 13 25 15 69 11 30 -3 67 -9 83 -13 26 -6 27 -5 27
29 0 34 -1 36 -50 46 -59 13 -113 13 -156 0z"/>
<path d="M6135 724 c-11 -3 -30 -7 -42 -10 -19 -3 -23 -11 -23 -40 0 -31 3
-35 18 -29 32 14 129 18 151 6 11 -7 21 -21 21 -31 0 -17 -7 -20 -52 -20 -109
0 -168 -37 -168 -106 0 -48 18 -81 55 -99 47 -22 87 -19 129 10 34 23 36 23
36 5 0 -18 7 -20 56 -20 l56 0 -4 123 c-5 136 -16 170 -62 194 -30 16 -134 26
-171 17z m125 -209 c0 -50 -74 -87 -108 -53 -35 35 1 78 64 78 40 0 44 -2 44
-25z"/>
<path d="M5270 593 c0 -110 3 -133 20 -161 35 -57 112 -67 172 -22 l28 21 0
-21 c0 -18 6 -20 55 -20 l55 0 0 165 0 165 -55 0 -55 0 0 -104 c0 -89 -3 -107
-21 -130 -23 -29 -60 -34 -83 -10 -13 12 -16 39 -16 130 l0 114 -50 0 -50 0 0
-127z"/>
<path d="M1264 586 c10 -9 46 -24 80 -35 147 -48 298 -53 394 -11 55 24 60 31
38 49 -11 9 -32 9 -90 -3 -86 -18 -225 -21 -312 -6 -127 22 -131 22 -110 6z"/>
<path d="M1119 546 c-2 -2 -17 -7 -34 -10 -53 -10 -147 -34 -152 -40 -14 -14
13 -39 77 -71 159 -80 314 -85 590 -19 58 14 109 29 113 33 4 5 -63 11 -150
14 -165 5 -221 17 -355 73 -55 23 -80 29 -89 20z"/>
<path d="M1630 373 c-81 -31 -252 -69 -345 -78 -132 -11 -137 -13 -133 -43 3
-27 4 -27 86 -30 136 -5 348 66 442 147 42 36 35 37 -50 4z"/>
</g>
</svg>
